#!OML:ASF H:\GeneralSubjects\Female5\Project 1\Capture day 1\Session 1\Female5.ASF
:FULLY-SPECIFIED
:DEGREES
37
root 6.86279 15.9485 4.01585 -175.933 -50.0305 -172.777
lowerback 8.37173 1.58255 0.0674032
upperback -9.46327 2.00919 1.59651
thorax -15.2913 0.896537 1.36176
lowerneck -15.7935 -6.8232 -6.46782
upperneck 31.3333 -10.0306 1.77056
head 13.6656 -5.37959 0.0347503
rclavicle 4.50123e-014 1.74931e-014
rhumerus -52.4903 18.043 -82.3803
rradius 40.5987
rwrist -14.8715
rhand -15.8927 -19.8143
rfingers 7.12502
rthumb 10.3037 -49.5419
lclavicle 4.50123e-014 1.74931e-014
lhumerus -45.5606 4.14727 78.3855
lradius 36.2033
lwrist -7.98624
lhand -22.1087 33.8782
lfingers 7.12502
lthumb 4.30378 63.8145
rfemur -8.50976 9.52289 25.3993
rtibia 12.7006
rfoot -28.0653 -21.039
rtoes -2.19587
lfemur -1.85924 -27.5484 -29.2742
ltibia 0.578947
lfoot -42.0498 17.0851
ltoes -47.3359
38
root 6.86269 15.9482 4.00858 -175.892 -49.8592 -172.897
lowerback 8.12987 1.61518 0.113091
upperback -9.5364 2.0579 1.69522
thorax -15.2289 0.916591 1.44215
lowerneck -16.0655 -6.79551 -6.26888
upperneck 31.7019 -9.86847 1.16118
head 13.8234 -5.36944 -0.229739
rclavicle 4.64473e-014 -5.2181e-015
rhumerus -52.2774 18.397 -82.3834
rradius 40.6086
rwrist -15.1673
rhand -15.4713 -19.7097
rfingers 7.12502
rthumb 10.7101 -49.4167
lclavicle 4.64473e-014 -5.2181e-015
lhumerus -45.7616 4.27615 78.5227
lradius 36.1665
lwrist -8.04998
lhand -22.2024 33.5481
lfingers 7.12502
lthumb 4.21331 63.4862
rfemur -7.51293 9.71299 25.3888
rtibia 10.9236
rfoot -27.8645 -21.4975
rtoes -3.38284
lfemur -0.750348 -29.7318 -29.7999
ltibia -0.479815
lfoot -43.8387 18.6353
ltoes -47.3153
39
root 6.86155 15.9477 3.9986 -175.904 -49.6423 -172.976
lowerback 7.85685 1.64842 0.224291
upperback -9.55126 2.11854 1.78457
thorax -15.0724 0.935889 1.47261
lowerneck -15.2194 -6.68841 -6.7938
upperneck 31.3499 -9.70253 1.43686
head 13.5332 -5.34577 0.0370321
rclavicle -2.30652e-014 -9.0447e-015
rhumerus -52.0377 18.7707 -82.4376
rradius 40.7497
rwrist -15.4995
rhand -15.6122 -19.8528
rfingers 7.12502
rthumb 10.5743 -49.5668
lclavicle -2.30652e-014 -9.0447e-015
lhumerus -45.9981 4.43833 78.6017
lradius 36.3523
lwrist -8.0502
lhand -22.0892 33.9583
lfingers 7.12502
lthumb 4.32259 63.8942
rfemur -6.80581 9.51792 25.425
rtibia 9.81465
rfoot -27.5336 -21.4473
rtoes -3.85141
lfemur 0.534626 -32.1256 -30.4018
ltibia -1.62578
lfoot -45.6195 20.9673
ltoes -48.1836
40
root 6.85695 15.9476 3.98441 -175.797 -49.373 -173.184
lowerback 7.55097 1.66971 0.333557
upperback -9.57676 2.15092 1.79559
thorax -14.9029 0.936394 1.42332
lowerneck -16.4986 -6.45883 -6.45272
upperneck 32.0331 -9.25061 1.00647
head 14.0371 -5.14173 -0.181098
rclavicle 2.93953e-014 -1.43498e-014
rhumerus -51.831 19.1241 -82.5742
rradius 41.05
rwrist -15.6581
rhand -15.9976 -19.9025
rfingers 7.12502
rthumb 10.2025 -49.6351
lclavicle 2.93953e-014 -1.43498e-014
lhumerus -46.2478 4.75283 78.4723
lradius 36.4564
lwrist -8.18414
lhand -21.67 34.9901
lfingers 7.12502
lthumb 4.72739 64.9174
rfemur -6.14039 9.35725 25.3686
rtibia 8.78008
rfoot -27.2346 -21.4384
rtoes -4.28329
lfemur 2.12947 -35.2355 -31.3336
ltibia -2.83716
lfoot -48.4628 23.2471
ltoes -48.5974
41
root 6.84875 15.9503 3.96911 -175.64 -49.0554 -173.514
lowerback 7.25917 1.70232 0.334774
upperback -9.59843 2.18231 1.79625
thorax -14.7424 0.948058 1.42313
lowerneck -16.5805 -6.35021 -6.3733
upperneck 32.1743 -9.03144 0.730464
head 14.086 -5.07966 -0.272493
rclavicle -7.17675e-014 -2.04251e-014
rhumerus -51.5401 19.4766 -82.6677
rradius 41.2684
rwrist -15.7656
rhand -16.1648 -19.7508
rfingers 7.12502
rthumb 10.0411 -49.4913
lclavicle -7.17675e-014 -2.04251e-014
lhumerus -46.4487 5.1287 78.2831
lradius 36.3183
lwrist -8.28323
lhand -21.3178 35.3402
lfingers 7.12502
lthumb 5.06755 65.2596
rfemur -5.28814 9.58641 25.2404
rtibia 7.46751
rfoot -27.1892 -21.7726
rtoes -4.49079
lfemur 4.05183 -39.123 -32.7126
ltibia -3.82462
lfoot -52.8243 24.6249
ltoes -47.7216
42
root 6.84596 15.9505 3.95514 -175.551 -48.6864 -173.674
lowerback 7.05333 1.7572 0.310652
upperback -9.68373 2.24551 1.86658
thorax -14.7206 0.979875 1.50824
lowerneck -16.3376 -6.25009 -6.39317
upperneck 32.1769 -8.86898 0.599381
head 14.0205 -5.04256 -0.283477
rclavicle 5.72748e-014 2.79292e-014
rhumerus -51.2926 19.7176 -82.6505
rradius 41.4839
rwrist -15.7669
rhand -16.1165 -19.8403
rfingers 7.12502
rthumb 10.0877 -49.5785
lclavicle 5.72748e-014 2.79292e-014
lhumerus -46.7795 5.54787 78.056
lradius 36.1625
lwrist -8.39165
lhand -21.5223 34.3804
lfingers 7.12502
lthumb 4.87003 64.3045
rfemur -4.51692 10.3065 25.2933
rtibia 6.1336
rfoot -27.3118 -22.2851
rtoes -4.02826
lfemur 5.87124 -42.9387 -34.0528
ltibia -4.44931
lfoot -57.533 25.2198
ltoes -46.656
